<?xml version="1.0" standalone="no"?>
<!DOCTYPE svg PUBLIC "-//W3C//DTD SVG 20010904//EN"
 "http://www.w3.org/TR/2001/REC-SVG-20010904/DTD/svg10.dtd">
<svg version="1.0" xmlns="http://www.w3.org/2000/svg"
 width="1312.000000pt" height="736.000000pt" viewBox="0 0 1312.000000 736.000000"
 preserveAspectRatio="xMidYMid meet">

<g transform="translate(0.000000,736.000000) scale(0.100000,-0.100000)"
fill="#000000" stroke="none">
<path d="M5863 7345 c-467 -60 -952 -267 -1318 -562 -180 -145 -420 -408 -555
-608 -303 -449 -482 -933 -541 -1465 -17 -158 -15 -539 5 -705 87 -723 391
-1349 892 -1836 323 -313 720 -551 1116 -669 287 -86 605 -123 872 -102 280
22 513 81 888 222 454 171 625 195 802 112 113 -53 176 -141 198 -277 l11 -65
46 0 46 0 0 1025 0 1025 -45 0 -46 0 -12 -97 c-51 -399 -208 -783 -446 -1088
-154 -198 -412 -408 -641 -523 -464 -231 -1111 -269 -1584 -91 -491 184 -756
586 -920 1399 -137 679 -160 1545 -60 2240 53 365 167 812 277 1087 113 280
319 548 530 687 242 160 583 232 920 195 454 -49 862 -254 1202 -605 183 -189
321 -375 434 -588 130 -243 198 -456 236 -740 l12 -88 37 6 c20 3 42 6 49 6 9
0 12 218 12 1055 l0 1055 -44 0 -43 0 -5 -74 c-11 -171 -119 -282 -316 -327
-120 -27 -333 26 -712 178 -315 127 -520 183 -793 218 -141 18 -363 18 -504 0z"/>
<path d="M5140 4713 l0 -48 98 -3 c345 -9 520 -126 584 -391 8 -32 13 -418 17
-1246 l6 -1200 45 -7 c180 -27 523 -18 760 20 l105 17 5 1180 c5 1076 7 1185
23 1238 42 142 119 235 248 300 106 53 210 77 367 84 l133 6 -3 46 -3 46
-1192 3 -1193 2 0 -47z"/>
<path d="M9582 2101 c-43 -478 -215 -909 -495 -1239 -239 -283 -618 -556 -910
-656 -211 -73 -357 -86 -943 -86 l-474 0 0 536 0 536 -27 -6 c-133 -27 -521
-48 -730 -40 l-161 7 -4 -319 c-4 -268 -8 -328 -22 -374 -77 -241 -241 -345
-563 -357 l-143 -6 0 -48 0 -49 2285 0 2285 0 0 1120 0 1120 -43 0 -43 0 -12
-139z"/>
</g>
</svg>
